# This file uses centimeters as units for non-parametric coordinates.

mtllib boulder.mtl
g default
v -169.515668 245.893447 -22.058599
v 50.119267 242.587212 109.843907
v -2.184875 93.502379 166.693567
v -143.978936 43.982583 134.803278
v 45.032522 -0.073698 23.806672
v -164.237316 130.923241 148.553888
v -82.450258 115.667456 203.694062
v -23.621847 214.863564 173.850741
v -121.553292 250.429505 100.864922
v -46.155589 7.330593 -60.700580
v -7.760578 71.343814 -66.049465
v 97.329711 62.647288 -8.265142
v -91.891346 5.817234 50.083742
v -39.830161 1.469126 94.797030
v -94.881987 34.609251 165.699743
v 47.351569 34.884084 100.413801
v 132.614679 111.012950 83.596797
v 69.942459 173.524242 168.080061
v 98.639872 172.971964 36.712695
v -21.803135 195.359011 -28.288879
v -69.601734 289.017446 14.090593
v -114.002302 156.512722 -91.340394
v -130.883574 62.344908 -54.235092
v -171.018977 128.814695 41.411743
v -96.394291 24.609176 -78.036194
v -144.393340 85.976287 83.763790
v -160.364596 254.550734 49.307741
v -69.190342 197.838523 -60.451084
v -6.797564 130.205831 -25.821602
v 6.208578 247.219519 144.123468
v 143.017668 158.479760 64.535198
v 130.492430 75.807818 36.941630
v -31.641612 110.696764 194.081649
v 1.821253 20.442954 100.077529
v -2.891755 0.869450 61.791327
v -166.943326 81.408706 158.670717
v -62.524683 98.053405 -79.023099
v -107.814003 32.743308 5.523685
v -176.083970 138.594569 93.835982
v -123.919908 293.583430 -25.752323
v 97.097236 122.146393 7.180486
v -94.993994 292.050257 68.881332
v 85.595867 217.453330 141.474013
v 62.149652 8.488601 66.260103
v 21.914260 192.000979 188.074661
v -40.813645 65.431521 153.704843
v -72.313391 2.803875 0.457670
v -103.577252 71.229900 195.391580
v -133.639310 118.910822 190.271302
v -70.249741 236.282800 139.937697
v -49.724102 164.639506 195.037157
v -145.795715 188.579179 123.077178
v 5.698135 1.954536 -20.621769
v 46.715664 63.752318 -44.952493
v -21.832983 27.482292 -95.499969
v 84.815427 15.049112 -4.448344
v -113.057251 18.750290 93.193613
v -69.315855 9.968129 127.780823
v -72.701432 -8.063933 79.742397
v -138.050303 20.853593 170.218990
v 19.589626 67.194695 131.985678
v 110.247654 149.754500 128.407320
v 92.402216 60.003697 95.141619
v 31.301449 126.855420 179.780478
v 87.724826 213.620184 73.283246
v -45.247705 252.923017 -29.601442
v 32.645047 177.571194 4.360831
v -10.331777 262.062887 68.834512
v -152.797824 216.024994 -80.014520
v -154.224720 102.944514 -8.138666
v -139.984780 101.356548 -97.190507
v -190.508779 179.714779 6.540027
v -93.017368 18.348074 -24.818611
v -163.383036 102.244205 113.368117
v -45.609369 142.352835 -52.833820
v -128.493700 286.155264 30.761139
v 21.306959 9.213829 77.055372
v -58.290314 82.850394 181.847202
v 128.204995 119.900404 35.842760
v 39.826083 221.746707 160.323773
v -85.196353 54.594786 -112.287320
v -119.934592 63.871281 46.825199
v -179.342054 192.816785 72.020088
v -101.198583 263.765082 -73.718368
v 41.004759 124.779832 -15.121637
v -41.957609 273.527057 111.692988
v 130.778438 198.068883 106.992980
v 106.210916 28.715084 49.610237
v -3.799979 149.677360 205.280179
v -21.804266 43.956118 125.090319
v -36.603779 1.123811 34.137155
v -153.124225 66.509796 199.956165
v -99.409740 176.140542 162.989949
v 38.654544 15.730070 -56.372348
v -105.536427 -7.517694 122.875760
v 61.421662 96.766588 136.935255
v 17.058803 223.030790 27.633364
v -177.866239 149.239306 -55.738403
vt 0.757256 0.379919
vt 0.673503 0.393894
vt 0.653465 0.296309
vt 0.739024 0.282699
vt 0.767035 0.457340
vt 0.688322 0.468799
vt 0.592007 0.362065
vt 0.556505 0.294054
vt 0.715193 0.220701
vt 0.641853 0.233748
vt 0.799055 0.263069
vt 0.819789 0.351019
vt 0.811614 0.412991
vt 0.555443 0.233380
vt 0.770826 0.196185
vt 0.636280 0.180290
vt 0.700241 0.166572
vt 0.568324 0.180273
vt 0.473043 0.286794
vt 0.483873 0.228928
vt 0.749947 0.154447
vt 0.708645 0.092957
vt 0.634357 0.110012
vt 0.521983 0.192347
vt 0.574657 0.134959
vt 0.773303 0.103697
vt 0.804112 0.162137
vt 0.633475 0.069504
vt 0.716166 0.051291
vt 0.518553 0.173095
vt 0.577213 0.113895
vt 0.788032 0.071479
vt 0.864852 0.773135
vt 0.847826 0.839309
vt 0.771817 0.847236
vt 0.781641 0.772935
vt 0.932436 0.763957
vt 0.895540 0.808516
vt 0.704743 0.750140
vt 0.700128 0.820262
vt 0.789810 0.685303
vt 0.873836 0.690680
vt 0.946502 0.694024
vt 0.710920 0.672945
vt 0.653881 0.786907
vt 0.644467 0.729334
vt 0.863906 0.635768
vt 0.794136 0.633847
vt 0.923421 0.637834
vt 0.649891 0.660729
vt 0.730154 0.627334
vt 0.795124 0.590313
vt 0.849624 0.594912
vt 0.889852 0.608519
vt 0.675470 0.611460
vt 0.741939 0.584113
vt 0.845561 0.554628
vt 0.793300 0.526445
vt 0.895645 0.595220
vt 0.633586 0.581467
vt 0.619472 0.655774
vt 0.693405 0.574922
vt 0.725759 0.514099
vt 0.665125 0.528726
vt 0.708155 0.472379
vt 0.790846 0.490592
vt 0.612496 0.563379
vt 0.636293 0.492567
vt 0.144131 0.137322
vt 0.221108 0.124985
vt 0.210984 0.236382
vt 0.127673 0.235414
vt 0.158702 0.072167
vt 0.230391 0.051288
vt 0.292218 0.139115
vt 0.277484 0.234352
vt 0.117396 0.344230
vt 0.198620 0.350685
vt 0.063312 0.234594
vt 0.085563 0.155504
vt 0.112455 0.104779
vt 0.306400 0.068940
vt 0.358514 0.159373
vt 0.342628 0.235971
vt 0.258813 0.319246
vt 0.053498 0.326358
vt 0.194578 0.445728
vt 0.115861 0.433444
vt 0.354114 0.103570
vt 0.421040 0.165439
vt 0.421844 0.247883
vt 0.319389 0.294829
vt 0.256511 0.394808
vt 0.071281 0.391476
vt 0.391010 0.095675
vt 0.449904 0.170317
vt 0.466614 0.260477
vt 0.401770 0.322336
vt 0.309702 0.358323
vt 0.290894 0.462060
vt 0.209396 0.499356
vt 0.454929 0.356267
vt 0.358792 0.392506
vt 0.409854 0.438495
vt 0.326391 0.487975
vt 0.238320 0.614848
vt 0.290581 0.619521
vt 0.293033 0.659246
vt 0.236770 0.660183
vt 0.184563 0.660768
vt 0.188236 0.603290
vt 0.234215 0.705656
vt 0.178111 0.725364
vt 0.127234 0.584346
vt 0.114040 0.661476
vt 0.114608 0.748412
vt 0.160458 0.532984
vt 0.194029 0.566658
vt 0.075841 0.657792
vt 0.092551 0.567630
vt 0.087526 0.753580
vt 0.181541 0.769020
vt 0.143431 0.816437
vt 0.137376 0.502933
vt 0.388172 0.593591
vt 0.455084 0.573745
vt 0.462409 0.668624
vt 0.380539 0.678717
vt 0.398791 0.535151
vt 0.448248 0.502933
vt 0.519440 0.591833
vt 0.541210 0.666140
vt 0.381137 0.769518
vt 0.467603 0.761016
vt 0.303793 0.694523
vt 0.330603 0.627639
vt 0.545791 0.745475
vt 0.298534 0.782473
vt 0.470084 0.832560
vt 0.378320 0.846807
vt 0.549176 0.813786
vt 0.598751 0.671095
vt 0.606996 0.739700
vt 0.313202 0.844445
vt 0.599897 0.797273
vt 0.110584 0.820015
vt 0.111372 0.888034
vt 0.053498 0.907410
vt 0.054896 0.825177
vt 0.123678 0.889780
vt 0.118327 0.820015
vt 0.188270 0.829960
vt 0.182004 0.894658
vn -0.839321 0.492663 -0.229833
vn -0.495214 0.302893 -0.814260
vn -0.890337 -0.146031 -0.431248
vn -0.998587 -0.003942 -0.052986
vn -0.839321 0.492663 -0.229833
vn -0.998587 -0.003942 -0.052986
vn -0.929130 0.225905 0.292719
vn -0.775232 0.568028 0.276333
vn -0.839321 0.492663 -0.229833
vn -0.775232 0.568028 0.276333
vn -0.446189 0.882270 0.150048
vn -0.254576 0.916762 -0.307796
vn -0.839321 0.492663 -0.229833
vn -0.254576 0.916762 -0.307796
vn 0.118212 0.586811 -0.801048
vn -0.495214 0.302893 -0.814260
vn 0.409349 0.912021 0.025524
vn 0.503311 0.771929 -0.388334
vn 0.555378 0.654372 -0.513179
vn 0.435869 0.892511 -0.115940
vn 0.409349 0.912021 0.025524
vn 0.435869 0.892511 -0.115940
vn 0.054828 0.904997 0.421869
vn 0.153767 0.841558 0.517819
vn 0.409349 0.912021 0.025524
vn 0.153767 0.841558 0.517819
vn 0.308220 0.657994 0.687055
vn 0.582536 0.630202 0.513320
vn 0.409349 0.912021 0.025524
vn 0.582536 0.630202 0.513320
vn 0.849230 0.492824 0.189558
vn 0.503311 0.771929 -0.388334
vn 0.315725 -0.625326 0.713642
vn 0.289579 -0.612991 0.735109
vn 0.478386 -0.479389 0.735753
vn 0.445654 -0.385552 0.807925
vn 0.315725 -0.625326 0.713642
vn 0.445654 -0.385552 0.807925
vn 0.186715 -0.031983 0.981893
vn 0.207141 -0.401659 0.892055
vn 0.315725 -0.625326 0.713642
vn 0.207141 -0.401659 0.892055
vn 0.326253 -0.541309 0.774948
vn 0.365454 -0.619861 0.694418
vn 0.315725 -0.625326 0.713642
vn 0.365454 -0.619861 0.694418
vn 0.322411 -0.625796 0.710233
vn 0.289579 -0.612991 0.735109
vn -0.863137 -0.461662 -0.204602
vn -0.778257 -0.575095 -0.252155
vn -0.291870 -0.939414 0.179757
vn -0.450172 -0.769711 0.452648
vn -0.863137 -0.461662 -0.204602
vn -0.450172 -0.769711 0.452648
vn -0.577040 -0.254737 0.775973
vn -0.979834 -0.142230 0.140345
vn -0.863137 -0.461662 -0.204602
vn -0.979834 -0.142230 0.140345
vn -0.941778 -0.319071 -0.106055
vn -0.847324 -0.496796 -0.187709
vn -0.863137 -0.461662 -0.204602
vn -0.847324 -0.496796 -0.187709
vn -0.851083 -0.516324 -0.095225
vn -0.778257 -0.575095 -0.252155
vn 0.189382 -0.981903 -0.001245
vn 0.072734 -0.982908 -0.169119
vn 0.470133 -0.537902 -0.699741
vn 0.626550 -0.674881 -0.389835
vn 0.189382 -0.981903 -0.001245
vn 0.626550 -0.674881 -0.389835
vn 0.732252 -0.661466 0.162077
vn 0.335901 -0.859510 0.385243
vn 0.189382 -0.981903 -0.001245
vn 0.335901 -0.859510 0.385243
vn 0.173542 -0.885067 0.431903
vn 0.114956 -0.979143 0.167523
vn 0.189382 -0.981903 -0.001245
vn 0.114956 -0.979143 0.167523
vn -0.011049 -0.998617 -0.051401
vn 0.072734 -0.982908 -0.169119
vn -0.859030 0.269425 0.435289
vn -0.467204 0.335872 0.817869
vn -0.418245 0.501645 0.757247
vn -0.669207 0.442810 0.596726
vn -0.859030 0.269425 0.435289
vn -0.669207 0.442810 0.596726
vn -0.929130 0.225905 0.292719
vn -0.983121 -0.110112 0.146113
vn -0.859030 0.269425 0.435289
vn -0.983121 -0.110112 0.146113
vn -0.941778 -0.319071 -0.106055
vn -0.979834 -0.142230 0.140345
vn -0.859030 0.269425 0.435289
vn -0.979834 -0.142230 0.140345
vn -0.577040 -0.254737 0.775973
vn -0.467204 0.335872 0.817869
vn -0.050555 0.041084 0.997876
vn 0.207141 -0.401659 0.892055
vn 0.186715 -0.031983 0.981893
vn -0.186848 0.335967 0.923155
vn -0.050555 0.041084 0.997876
vn -0.186848 0.335967 0.923155
vn -0.418245 0.501645 0.757247
vn -0.467204 0.335872 0.817869
vn -0.050555 0.041084 0.997876
vn -0.467204 0.335872 0.817869
vn -0.577040 -0.254737 0.775973
vn 0.167467 -0.347140 0.922740
vn -0.050555 0.041084 0.997876
vn 0.167467 -0.347140 0.922740
vn 0.326253 -0.541309 0.774948
vn 0.207141 -0.401659 0.892055
vn -0.132666 0.573305 0.808530
vn 0.245361 0.347564 0.904985
vn 0.308220 0.657994 0.687055
vn 0.153767 0.841558 0.517819
vn -0.132666 0.573305 0.808530
vn 0.153767 0.841558 0.517819
vn 0.054828 0.904997 0.421869
vn -0.317703 0.606391 0.728941
vn -0.132666 0.573305 0.808530
vn -0.317703 0.606391 0.728941
vn -0.418245 0.501645 0.757247
vn -0.186848 0.335967 0.923155
vn -0.132666 0.573305 0.808530
vn -0.186848 0.335967 0.923155
vn 0.186715 -0.031983 0.981893
vn 0.245361 0.347564 0.904985
vn -0.516996 0.601548 0.608978
vn -0.317703 0.606391 0.728941
vn 0.054828 0.904997 0.421869
vn -0.136205 0.936523 0.323067
vn -0.516996 0.601548 0.608978
vn -0.136205 0.936523 0.323067
vn -0.446189 0.882270 0.150048
vn -0.775232 0.568028 0.276333
vn -0.516996 0.601548 0.608978
vn -0.775232 0.568028 0.276333
vn -0.929130 0.225905 0.292719
vn -0.669207 0.442810 0.596726
vn -0.516996 0.601548 0.608978
vn -0.669207 0.442810 0.596726
vn -0.418245 0.501645 0.757247
vn -0.317703 0.606391 0.728941
vn -0.095089 -0.939357 -0.329493
vn -0.497952 -0.772432 -0.394199
vn -0.116472 -0.245658 -0.962334
vn 0.286185 -0.366329 -0.885382
vn -0.095089 -0.939357 -0.329493
vn 0.286185 -0.366329 -0.885382
vn 0.470133 -0.537902 -0.699741
vn 0.072734 -0.982908 -0.169119
vn -0.095089 -0.939357 -0.329493
vn 0.072734 -0.982908 -0.169119
vn -0.011049 -0.998617 -0.051401
vn -0.313731 -0.942549 -0.114782
vn -0.095089 -0.939357 -0.329493
vn -0.313731 -0.942549 -0.114782
vn -0.578594 -0.809038 -0.103378
vn -0.497952 -0.772432 -0.394199
vn 0.427908 0.386113 -0.817197
vn 0.402268 0.329796 -0.854058
vn 0.534029 0.231305 -0.813210
vn 0.446397 0.318895 -0.836084
vn 0.427908 0.386113 -0.817197
vn 0.446397 0.318895 -0.836084
vn 0.400100 0.369741 -0.838577
vn 0.510180 0.238299 -0.826396
vn 0.427908 0.386113 -0.817197
vn 0.510180 0.238299 -0.826396
vn 0.470133 -0.537902 -0.699741
vn 0.286185 -0.366329 -0.885382
vn 0.427908 0.386113 -0.817197
vn 0.286185 -0.366329 -0.885382
vn -0.116472 -0.245658 -0.962334
vn 0.402268 0.329796 -0.854058
vn 0.733719 -0.030128 -0.678785
vn 0.510180 0.238299 -0.826396
vn 0.400100 0.369741 -0.838577
vn 0.560034 0.304358 -0.770538
vn 0.733719 -0.030128 -0.678785
vn 0.560034 0.304358 -0.770538
vn 0.854716 0.117145 -0.505706
vn 0.952609 -0.243144 -0.182801
vn 0.733719 -0.030128 -0.678785
vn 0.952609 -0.243144 -0.182801
vn 0.732252 -0.661466 0.162077
vn 0.626550 -0.674881 -0.389835
vn 0.733719 -0.030128 -0.678785
vn 0.626550 -0.674881 -0.389835
vn 0.470133 -0.537902 -0.699741
vn 0.510180 0.238299 -0.826396
vn -0.586151 -0.793461 -0.163850
vn -0.313731 -0.942549 -0.114782
vn -0.011049 -0.998617 -0.051401
vn -0.112884 -0.993573 -0.008340
vn -0.586151 -0.793461 -0.163850
vn -0.112884 -0.993573 -0.008340
vn -0.291870 -0.939414 0.179757
vn -0.778257 -0.575095 -0.252155
vn -0.586151 -0.793461 -0.163850
vn -0.778257 -0.575095 -0.252155
vn -0.851083 -0.516324 -0.095225
vn -0.786910 -0.615885 -0.038198
vn -0.586151 -0.793461 -0.163850
vn -0.786910 -0.615885 -0.038198
vn -0.578594 -0.809038 -0.103378
vn -0.313731 -0.942549 -0.114782
vn 0.261268 -0.889464 0.374958
vn 0.114956 -0.979143 0.167523
vn 0.173542 -0.885067 0.431903
vn 0.247333 -0.734525 0.631902
vn 0.261268 -0.889464 0.374958
vn 0.247333 -0.734525 0.631902
vn 0.322411 -0.625796 0.710233
vn 0.346330 -0.741043 0.575248
vn 0.261268 -0.889464 0.374958
vn 0.346330 -0.741043 0.575248
vn -0.291870 -0.939414 0.179757
vn -0.112884 -0.993573 -0.008340
vn 0.261268 -0.889464 0.374958
vn -0.112884 -0.993573 -0.008340
vn -0.011049 -0.998617 -0.051401
vn 0.114956 -0.979143 0.167523
vn 0.328750 -0.610945 0.720187
vn 0.346330 -0.741043 0.575248
vn 0.322411 -0.625796 0.710233
vn 0.365454 -0.619861 0.694418
vn 0.328750 -0.610945 0.720187
vn 0.365454 -0.619861 0.694418
vn 0.326253 -0.541309 0.774948
vn 0.167467 -0.347140 0.922740
vn 0.328750 -0.610945 0.720187
vn 0.167467 -0.347140 0.922740
vn -0.577040 -0.254737 0.775973
vn -0.450172 -0.769711 0.452648
vn 0.328750 -0.610945 0.720187
vn -0.450172 -0.769711 0.452648
vn -0.291870 -0.939414 0.179757
vn 0.346330 -0.741043 0.575248
vn 0.307066 -0.639952 0.704395
vn 0.335901 -0.859510 0.385243
vn 0.732252 -0.661466 0.162077
vn 0.583808 -0.505006 0.635717
vn 0.307066 -0.639952 0.704395
vn 0.583808 -0.505006 0.635717
vn 0.478386 -0.479389 0.735753
vn 0.289579 -0.612991 0.735109
vn 0.307066 -0.639952 0.704395
vn 0.289579 -0.612991 0.735109
vn 0.322411 -0.625796 0.710233
vn 0.247333 -0.734525 0.631902
vn 0.307066 -0.639952 0.704395
vn 0.247333 -0.734525 0.631902
vn 0.173542 -0.885067 0.431903
vn 0.335901 -0.859510 0.385243
vn 0.889620 -0.267710 0.370011
vn 0.952609 -0.243144 -0.182801
vn 0.854716 0.117145 -0.505706
vn 0.944215 0.256589 -0.206448
vn 0.889620 -0.267710 0.370011
vn 0.944215 0.256589 -0.206448
vn 0.849230 0.492824 0.189558
vn 0.725065 -0.169538 0.667485
vn 0.889620 -0.267710 0.370011
vn 0.725065 -0.169538 0.667485
vn 0.478386 -0.479389 0.735753
vn 0.583808 -0.505006 0.635717
vn 0.889620 -0.267710 0.370011
vn 0.583808 -0.505006 0.635717
vn 0.732252 -0.661466 0.162077
vn 0.952609 -0.243144 -0.182801
vn 0.566863 0.022635 0.823501
vn 0.725065 -0.169538 0.667485
vn 0.849230 0.492824 0.189558
vn 0.582536 0.630202 0.513320
vn 0.566863 0.022635 0.823501
vn 0.582536 0.630202 0.513320
vn 0.308220 0.657994 0.687055
vn 0.245361 0.347564 0.904985
vn 0.566863 0.022635 0.823501
vn 0.245361 0.347564 0.904985
vn 0.186715 -0.031983 0.981893
vn 0.445654 -0.385552 0.807925
vn 0.566863 0.022635 0.823501
vn 0.445654 -0.385552 0.807925
vn 0.478386 -0.479389 0.735753
vn 0.725065 -0.169538 0.667485
vn 0.517735 0.517315 -0.681421
vn 0.560034 0.304358 -0.770538
vn 0.400100 0.369741 -0.838577
vn 0.478666 0.409503 -0.776651
vn 0.517735 0.517315 -0.681421
vn 0.478666 0.409503 -0.776651
vn 0.555378 0.654372 -0.513179
vn 0.503311 0.771929 -0.388334
vn 0.517735 0.517315 -0.681421
vn 0.503311 0.771929 -0.388334
vn 0.849230 0.492824 0.189558
vn 0.944215 0.256589 -0.206448
vn 0.517735 0.517315 -0.681421
vn 0.944215 0.256589 -0.206448
vn 0.854716 0.117145 -0.505706
vn 0.560034 0.304358 -0.770538
vn 0.589558 0.241247 -0.770857
vn 0.446397 0.318895 -0.836084
vn 0.534029 0.231305 -0.813210
vn 0.486684 0.157269 -0.859305
vn 0.589558 0.241247 -0.770857
vn 0.486684 0.157269 -0.859305
vn 0.118212 0.586811 -0.801048
vn 0.601475 0.561610 -0.568174
vn 0.589558 0.241247 -0.770857
vn 0.601475 0.561610 -0.568174
vn 0.555378 0.654372 -0.513179
vn 0.478666 0.409503 -0.776651
vn 0.589558 0.241247 -0.770857
vn 0.478666 0.409503 -0.776651
vn 0.400100 0.369741 -0.838577
vn 0.446397 0.318895 -0.836084
vn 0.332967 0.929894 -0.156301
vn 0.601475 0.561610 -0.568174
vn 0.118212 0.586811 -0.801048
vn -0.254576 0.916762 -0.307796
vn 0.332967 0.929894 -0.156301
vn -0.254576 0.916762 -0.307796
vn -0.446189 0.882270 0.150048
vn -0.136205 0.936523 0.323067
vn 0.332967 0.929894 -0.156301
vn -0.136205 0.936523 0.323067
vn 0.054828 0.904997 0.421869
vn 0.435869 0.892511 -0.115940
vn 0.332967 0.929894 -0.156301
vn 0.435869 0.892511 -0.115940
vn 0.555378 0.654372 -0.513179
vn 0.601475 0.561610 -0.568174
vn 0.061142 0.164986 -0.984399
vn 0.402268 0.329796 -0.854058
vn -0.116472 -0.245658 -0.962334
vn -0.555918 -0.193160 -0.808483
vn 0.061142 0.164986 -0.984399
vn -0.555918 -0.193160 -0.808483
vn -0.890337 -0.146031 -0.431248
vn -0.495214 0.302893 -0.814260
vn 0.061142 0.164986 -0.984399
vn -0.495214 0.302893 -0.814260
vn 0.118212 0.586811 -0.801048
vn 0.486684 0.157269 -0.859305
vn 0.061142 0.164986 -0.984399
vn 0.486684 0.157269 -0.859305
vn 0.534029 0.231305 -0.813210
vn 0.402268 0.329796 -0.854058
vn -0.810244 -0.561943 -0.166507
vn -0.497952 -0.772432 -0.394199
vn -0.578594 -0.809038 -0.103378
vn -0.786910 -0.615885 -0.038198
vn -0.810244 -0.561943 -0.166507
vn -0.786910 -0.615885 -0.038198
vn -0.851083 -0.516324 -0.095225
vn -0.860439 -0.509073 -0.022110
vn -0.810244 -0.561943 -0.166507
vn -0.860439 -0.509073 -0.022110
vn -0.890337 -0.146031 -0.431248
vn -0.555918 -0.193160 -0.808483
vn -0.810244 -0.561943 -0.166507
vn -0.555918 -0.193160 -0.808483
vn -0.116472 -0.245658 -0.962334
vn -0.497952 -0.772432 -0.394199
vn -0.907457 -0.420115 -0.005023
vn -0.860439 -0.509073 -0.022110
vn -0.851083 -0.516324 -0.095225
vn -0.847324 -0.496796 -0.187709
vn -0.907457 -0.420115 -0.005023
vn -0.847324 -0.496796 -0.187709
vn -0.941778 -0.319071 -0.106055
vn -0.983121 -0.110112 0.146113
vn -0.907457 -0.420115 -0.005023
vn -0.983121 -0.110112 0.146113
vn -0.929130 0.225905 0.292719
vn -0.998587 -0.003942 -0.052986
vn -0.907457 -0.420115 -0.005023
vn -0.998587 -0.003942 -0.052986
vn -0.890337 -0.146031 -0.431248
vn -0.860439 -0.509073 -0.022110
s off
g Cube
usemtl initialShadingGroup
f 1/1/1 69/2/2 98/3/3 72/4/4
f 1/1/5 72/4/6 83/11/7 27/12/8
f 1/1/9 27/12/10 76/13/11 40/5/12
f 1/1/13 40/5/14 84/6/15 69/2/16
f 2/69/17 65/70/18 97/71/19 68/72/20
f 2/69/21 68/72/22 86/79/23 30/80/24
f 2/69/25 30/80/26 80/81/27 43/73/28
f 2/69/29 43/73/30 87/74/31 65/70/32
f 3/51/33 61/48/34 96/41/35 64/44/36
f 3/51/37 64/44/38 89/50/39 33/55/40
f 3/51/41 33/55/42 78/62/43 46/56/44
f 3/51/45 46/56/46 90/52/47 61/48/48
f 4/22/49 57/23/50 95/28/51 60/29/52
f 4/22/53 60/29/54 92/32/55 36/26/56
f 4/22/57 36/26/58 74/21/59 26/17/60
f 4/22/61 26/17/62 82/16/63 57/23/64
f 5/114/65 53/115/66 94/119/67 56/120/68
f 5/114/69 56/120/70 88/124/71 44/117/72
f 5/114/73 44/117/74 77/118/75 35/111/76
f 5/114/77 35/111/78 91/110/79 53/115/80
f 6/125/81 49/126/82 93/127/83 52/128/84
f 6/125/85 52/128/86 83/135/87 39/136/88
f 6/27/89 39/15/90 74/21/91 36/26/92
f 6/125/93 36/129/94 92/130/95 49/126/96
f 7/60/97 33/55/98 89/50/99 51/61/100
f 7/131/101 51/132/102 93/127/103 49/126/104
f 7/60/105 49/67/106 92/68/107 48/64/108
f 7/60/109 48/64/110 78/62/111 33/55/112
f 8/137/113 45/143/114 80/145/115 30/141/116
f 8/137/117 30/141/118 86/139/119 50/134/120
f 8/137/121 50/134/122 93/127/123 51/132/124
f 8/137/125 51/132/126 89/142/127 45/143/128
f 9/133/129 50/134/130 86/139/131 42/140/132
f 9/133/133 42/140/134 76/144/135 27/138/136
f 9/133/137 27/138/138 83/135/139 52/128/140
f 9/133/141 52/128/142 93/127/143 50/134/144
f 10/146/145 25/147/146 81/148/147 55/149/148
f 10/116/149 55/121/150 94/119/151 53/115/152
f 10/116/153 53/115/154 91/110/155 47/113/156
f 10/116/157 47/113/158 73/122/159 25/123/160
f 11/98/161 37/103/162 75/99/163 29/92/164
f 11/98/165 29/92/166 85/84/167 54/91/168
f 11/98/169 54/91/170 94/97/171 55/102/172
f 11/98/173 55/102/174 81/104/175 37/103/176
f 12/90/177 54/91/178 85/84/179 41/83/180
f 12/90/181 41/83/182 79/89/183 32/95/184
f 12/150/185 32/151/186 88/152/187 56/153/188
f 12/90/189 56/96/190 94/97/191 54/91/192
f 13/112/193 47/113/194 91/110/195 59/109/196
f 13/25/197 59/31/198 95/28/199 57/23/200
f 13/25/201 57/23/202 82/16/203 38/18/204
f 13/25/205 38/18/206 73/24/207 47/30/208
f 14/57/209 35/59/210 77/54/211 34/53/212
f 14/57/213 34/53/214 90/52/215 58/58/216
f 14/106/217 58/107/218 95/108/219 59/109/220
f 14/106/221 59/109/222 91/110/223 35/111/224
f 15/63/225 58/58/226 90/52/227 46/56/228
f 15/63/229 46/56/230 78/62/231 48/64/232
f 15/63/233 48/64/234 92/68/235 60/65/236
f 15/63/237 60/65/238 95/66/239 58/58/240
f 16/47/241 44/49/242 88/43/243 63/42/244
f 16/47/245 63/42/246 96/41/247 61/48/248
f 16/47/249 61/48/250 90/52/251 34/53/252
f 16/47/253 34/53/254 77/54/255 44/49/256
f 17/33/257 32/37/258 79/38/259 31/34/260
f 17/33/261 31/34/262 87/35/263 62/36/264
f 17/33/265 62/36/266 96/41/267 63/42/268
f 17/33/269 63/42/270 88/43/271 32/37/272
f 18/39/273 62/36/274 87/35/275 43/40/276
f 18/39/277 43/40/278 80/45/279 45/46/280
f 18/39/281 45/46/282 89/50/283 64/44/284
f 18/39/285 64/44/286 96/41/287 62/36/288
f 19/75/289 41/83/290 85/84/291 67/76/292
f 19/75/293 67/76/294 97/71/295 65/70/296
f 19/75/297 65/70/298 87/74/299 31/82/300
f 19/75/301 31/82/302 79/89/303 41/83/304
f 20/85/305 29/92/306 75/99/307 28/93/308
f 20/85/309 28/93/310 84/87/311 66/78/312
f 20/85/313 66/78/314 97/71/315 67/76/316
f 20/85/317 67/76/318 85/84/319 29/92/320
f 21/77/321 66/78/322 84/87/323 40/88/324
f 21/77/325 40/88/326 76/94/327 42/86/328
f 21/77/329 42/86/330 86/79/331 68/72/332
f 21/77/333 68/72/334 97/71/335 66/78/336
f 22/100/337 37/103/338 81/104/339 71/105/340
f 22/7/341 71/8/342 98/3/343 69/2/344
f 22/100/345 69/101/346 84/87/347 28/93/348
f 22/100/349 28/93/350 75/99/351 37/103/352
f 23/14/353 25/20/354 73/24/355 38/18/356
f 23/14/357 38/18/358 82/16/359 70/10/360
f 23/14/361 70/10/362 98/3/363 71/8/364
f 23/14/365 71/8/366 81/19/367 25/20/368
f 24/9/369 70/10/370 82/16/371 26/17/372
f 24/9/373 26/17/374 74/21/375 39/15/376
f 24/9/377 39/15/378 83/11/379 72/4/380
f 24/9/381 72/4/382 98/3/383 70/10/384
